<svg viewBox="0 0 512 512" xmlns="http://www.w3.org/2000/svg" role="img" aria-label="Greda">
  <rect width="512" height="512" rx="112" fill="#1f6feb"/>
  <g fill="#ffffff">
    <path d="M256 150c-42-27-96-31-146-19-11 3-19 12-19 24v178c0 14 13 24 27 20 41-9 84-5 119 16 6 3 12 3 18 0 35-21 78-25 119-16 14 4 27-6 27-20V155c0-12-8-21-19-24-50-12-104-8-146 19z" opacity="0.2"/>
    <path d="M247 170v194c-32-16-70-20-107-13-7 1-13-4-13-11V172c0-6 4-11 10-12 37-9 77-6 110 10z"/>
    <path d="M265 170v194c32-16 70-20 107-13 7 1 13-4 13-11V172c0-6-4-11-10-12-37-9-77-6-110 10z"/>
  </g>
</svg>
